<svg width="386" height="116" viewBox="0 0 386 116" fill="none" xmlns="http://www.w3.org/2000/svg">
<path d="M228.385 45.6712C230.739 45.6712 232.898 46.129 234.86 47.0446C236.822 47.9603 238.435 49.2029 239.7 50.7726V34.3564H247.483V82.5586H240.027L239.831 77.9803C238.61 79.5936 236.996 80.9017 234.991 81.9045C232.985 82.8638 230.783 83.3434 228.385 83.3434C225.202 83.3434 222.39 82.5368 219.948 80.9235C217.506 79.2666 215.588 77.0211 214.192 74.187C212.841 71.3092 212.165 68.0827 212.165 64.5073C212.165 60.8883 212.841 57.6617 214.192 54.8276C215.588 51.9935 217.506 49.7698 219.948 48.1565C222.39 46.4996 225.202 45.6712 228.385 45.6712ZM230.216 76.8685C232.396 76.8685 234.315 76.2363 235.972 74.9718C237.672 73.6637 238.915 71.9414 239.7 69.8049V59.1442C238.915 56.9641 237.672 55.2636 235.972 54.0428C234.315 52.7783 232.396 52.1461 230.216 52.1461C228.211 52.1461 226.423 52.6911 224.853 53.7812C223.327 54.8276 222.128 56.2883 221.256 58.1632C220.384 59.9945 219.948 62.1092 219.948 64.5073C219.948 66.8618 220.384 68.9765 221.256 70.8514C222.128 72.6827 223.327 74.1433 224.853 75.2334C226.423 76.3235 228.211 76.8685 230.216 76.8685Z" fill="#FFF9EB"/>
<path d="M184.016 82.5586V34.3564H191.864V82.5586H184.016ZM171.262 82.5586V76.2144H204.749V82.5586H171.262ZM175.971 40.7005V34.3564H187.94V40.7005H175.971Z" fill="#FFF9EB"/>
<path d="M154.036 82.5586L153.709 74.9064V58.6864C153.709 56.4191 152.946 54.6314 151.42 53.3233C149.894 52.0153 147.779 51.3612 145.076 51.3612C142.503 51.3612 140.388 51.9499 138.732 53.1271C137.118 54.3044 136.203 55.9177 135.985 57.967H128.398C128.616 55.3944 129.444 53.1925 130.883 51.3612C132.366 49.53 134.328 48.1347 136.769 47.1754C139.255 46.1726 142.111 45.6712 145.337 45.6712C148.651 45.6712 151.507 46.1944 153.905 47.2408C156.347 48.2873 158.222 49.8134 159.53 51.8191C160.838 53.8248 161.492 56.2665 161.492 59.1442V82.5586H154.036ZM141.478 83.3434C139.124 83.3434 137.031 82.9074 135.2 82.0353C133.412 81.1633 132.017 79.9206 131.014 78.3073C130.011 76.6941 129.51 74.8192 129.51 72.6827C129.51 68.9765 130.949 66.0988 133.826 64.0495C136.704 61.9566 140.694 60.9101 145.795 60.9101H154.624V66.5348L145.533 66.6002C142.917 66.6002 140.868 67.1016 139.386 68.1044C137.903 69.0637 137.162 70.459 137.162 72.2903C137.162 73.7291 137.685 74.8846 138.732 75.7566C139.822 76.6287 141.304 77.0647 143.179 77.0647C145.577 77.0647 147.714 76.4325 149.588 75.168C151.507 73.8599 153.055 72.0722 154.232 69.8049L155.082 75.2988C153.949 77.9585 152.226 79.9642 149.915 81.3159C147.605 82.6676 144.792 83.3434 141.478 83.3434Z" fill="#FFF9EB"/>
<path d="M112.021 62.8068V58.294C112.021 56.5063 111.476 55.0674 110.386 53.9774C109.34 52.8437 107.814 52.2769 105.808 52.2769C103.366 52.2769 101.143 53.1707 99.137 54.9584C97.1313 56.7461 95.4527 59.5584 94.101 63.3954L93.1199 56.0703C94.1228 53.803 95.3 51.9063 96.6517 50.3802C98.047 48.8105 99.6167 47.6333 101.361 46.8484C103.148 46.0636 105.089 45.6712 107.182 45.6712C110.888 45.6712 113.918 46.7612 116.273 48.9413C118.627 51.1214 119.804 54.239 119.804 58.294V62.8068H112.021ZM87.6915 82.5586V46.456H95.082L95.4744 54.1082V82.5586H87.6915Z" fill="#FFF9EB"/>
<path d="M60.7198 83.3434C56.9264 83.3434 53.6563 82.6022 50.9093 81.1197C48.1624 79.5936 46.0477 77.4135 44.5652 74.5794C43.1264 71.7452 42.4069 68.3661 42.4069 64.4419C42.4069 60.5177 43.1482 57.1603 44.6306 54.3698C46.1131 51.5356 48.2496 49.3773 51.0401 47.8949C53.8307 46.4124 57.1662 45.6712 61.0468 45.6712C67.0639 45.6712 71.4895 47.3498 74.3237 50.7072C77.2014 54.0646 78.4441 58.6646 78.0517 64.5073H48.6202L48.6856 58.8172L70.0725 58.8826C69.8981 56.7897 68.9824 55.111 67.3255 53.8466C65.6687 52.5821 63.5758 51.9499 61.0468 51.9499C57.4715 51.9499 54.7681 53.0617 52.9368 55.2854C51.1055 57.5091 50.1899 60.6703 50.1899 64.7689C50.1899 67.1234 50.6041 69.2381 51.4326 71.113C52.261 72.9443 53.4383 74.3832 54.9643 75.4296C56.534 76.4325 58.4525 76.9339 60.7198 76.9339C63.2923 76.9339 65.4288 76.3235 67.1293 75.1026C68.8734 73.8817 69.9417 72.2467 70.3341 70.1974H78.1825C77.6592 74.2523 75.8279 77.4571 72.6886 79.8116C69.5928 82.1661 65.6033 83.3434 60.7198 83.3434Z" fill="#FFF9EB"/>
<path d="M27.077 51.165L27.2732 46.456H34.7292V78.3074C34.7292 83.7576 33.2685 87.8998 30.3472 90.7339C27.4259 93.5681 22.9784 94.9852 17.0049 94.9852C13.7348 94.9852 10.9007 94.5491 8.50254 93.6771C6.10442 92.8487 4.22953 91.5624 2.87786 89.8183C1.5698 88.1178 0.828562 85.9595 0.654154 83.3434H8.82955C9.04756 85.0875 9.8542 86.3955 11.2495 87.2676C12.6447 88.1396 14.694 88.5757 17.3974 88.5757C20.5803 88.5757 22.9566 87.7472 24.5263 86.0903C26.1396 84.4771 26.9462 82.1879 26.9462 79.223V75.2988C25.7254 76.9993 24.1339 78.3291 22.1718 79.2884C20.2533 80.2476 18.1168 80.7273 15.7623 80.7273C12.7101 80.7273 9.98501 79.9642 7.58689 78.4382C5.23238 76.9121 3.37929 74.841 2.02762 72.2249C0.675955 69.5651 0.00012207 66.5784 0.00012207 63.2646C0.00012207 59.6456 0.697756 56.5281 2.09302 53.912C3.53189 51.2522 5.47219 49.2247 7.91391 47.8295C10.3556 46.4342 13.1244 45.7366 16.2201 45.7366C18.531 45.7366 20.6239 46.238 22.4988 47.2408C24.4173 48.2437 25.9434 49.5518 27.077 51.165ZM17.5936 74.7102C19.7737 74.7102 21.6922 74.0561 23.3491 72.7481C25.0495 71.3964 26.2486 69.6305 26.9462 67.4504V58.948C26.2486 56.7243 25.0495 54.9802 23.3491 53.7158C21.6922 52.4077 19.7737 51.7537 17.5936 51.7537C15.6751 51.7537 13.9746 52.2551 12.4921 53.2579C11.0097 54.2608 9.8542 55.6124 9.02576 57.3129C8.19732 59.0134 7.7831 60.9537 7.7831 63.1338C7.7831 65.3575 8.19732 67.3414 9.02576 69.0855C9.8542 70.786 11.0097 72.1594 12.4921 73.2059C13.9746 74.2087 15.6751 74.7102 17.5936 74.7102Z" fill="#FFF9EB"/>
<path d="M346.142 80.4685V44.3659H353.925V80.4685H346.142ZM333.389 80.4685V74.1244H366.156V80.4685H333.389ZM338.032 50.71V44.3659H350.001V50.71H338.032ZM345.685 38.6758V30.6967H354.187V38.6758H345.685Z" fill="#FFF9EB"/>
<path d="M315.901 80.4685L315.573 72.8163V56.5963C315.573 54.329 314.81 52.5413 313.284 51.2332C311.758 49.9252 309.644 49.2712 306.94 49.2712C304.368 49.2712 302.253 49.8598 300.596 51.037C298.983 52.2143 298.067 53.8276 297.849 55.8769H290.262C290.48 53.3043 291.309 51.1024 292.748 49.2712C294.23 47.4399 296.192 46.0446 298.634 45.0854C301.119 44.0825 303.975 43.5811 307.202 43.5811C310.516 43.5811 313.372 44.1043 315.77 45.1507C318.211 46.1972 320.086 47.7233 321.394 49.729C322.702 51.7347 323.356 54.1764 323.356 57.0541V80.4685H315.901ZM303.343 81.2533C300.989 81.2533 298.896 80.8173 297.064 79.9452C295.277 79.0732 293.881 77.8305 292.879 76.2173C291.876 74.604 291.374 72.7291 291.374 70.5926C291.374 66.8864 292.813 64.0087 295.691 61.9594C298.569 59.8665 302.558 58.82 307.66 58.82H316.489V64.4447L307.398 64.5101C304.782 64.5101 302.733 65.0115 301.25 66.0144C299.768 66.9736 299.026 68.3689 299.026 70.2002C299.026 71.639 299.55 72.7945 300.596 73.6665C301.686 74.5386 303.169 74.9746 305.044 74.9746C307.442 74.9746 309.578 74.3424 311.453 73.0779C313.372 71.7698 314.919 69.9822 316.097 67.7148L316.947 73.2087C315.813 75.8684 314.091 77.8741 311.78 79.2258C309.469 80.5775 306.657 81.2533 303.343 81.2533Z" fill="#FFF9EB"/>
<path fill-rule="evenodd" clip-rule="evenodd" d="M360.209 4.18018H294.372C282.828 4.18018 273.471 13.5378 273.471 25.0811V90.9189C273.471 102.462 282.828 111.82 294.372 111.82H360.209C371.753 111.82 381.11 102.462 381.11 90.9189V25.0811C381.11 13.5378 371.753 4.18018 360.209 4.18018ZM294.372 0C280.52 0 269.291 11.2292 269.291 25.0811V90.9189C269.291 104.771 280.52 116 294.372 116H360.209C374.061 116 385.291 104.771 385.291 90.9189V25.0811C385.291 11.2292 374.061 0 360.209 0H294.372Z" fill="#FFF9EB"/>
</svg>
